# xmcd CD database file
#
# Track frame offsets:
#	150
#	16850
#	38495
#	51697
#	73555
#	87607
#	101512
#	117700
#	135777
#	150847
#	171415
#	186025
#
# Disc length: 2639 seconds
#
# Revision: 1
# Processed by: cddbd v1.5.1PL0 Copyright (c) Steve Scherf et al.
# Submitted via: CDex 1.40Release
#
DISCID=990a4d0c
DTITLE=Gli Alunni Del Sole - I Grandi Successi Originali cd2
DYEAR=1900
DGENRE=Pop
TTITLE0=Concerto
TTITLE1=Era Carnevale
TTITLE2=Fiori
TTITLE3=Jenny
TTITLE4=Innamorarsi
TTITLE5=Fantasia
TTITLE6=Carme'
TTITLE7=Serenate
TTITLE8=Dove era lei a Quell'ora
TTITLE9=Giocattolo
TTITLE10=L'aquilone
TTITLE11=Tutto come un anno fà
EXTD=ID3G: 13
EXTT0=
EXTT1=
EXTT2=
EXTT3=
EXTT4=
EXTT5=
EXTT6=
EXTT7=
EXTT8=
EXTT9=
EXTT10=
EXTT11=
PLAYORDER=
